<svg width="30" height="30" viewBox="0 0 30 30" fill="none" xmlns="http://www.w3.org/2000/svg">
<rect width="30" height="30" fill="black"/>
<path d="M8.99622 14.24C8.51622 14.24 8.11622 14.136 7.79622 13.928C7.48422 13.72 7.32822 13.416 7.32822 13.016C7.32822 12.752 7.40022 12.54 7.54422 12.38C7.69622 12.212 7.89222 12.128 8.13222 12.128C8.32422 12.128 8.47622 12.18 8.58822 12.284C8.70022 12.388 8.77622 12.5 8.81622 12.62C8.86422 12.732 8.88822 12.804 8.88822 12.836C8.65622 13.004 8.54022 13.2 8.54022 13.424C8.54022 13.576 8.58822 13.704 8.68422 13.808C8.78022 13.912 8.91222 13.964 9.08022 13.964C9.33622 13.964 9.53622 13.792 9.68022 13.448C9.83222 13.096 9.90822 12.492 9.90822 11.636V4.832L8.80422 4.664V4.4H12.2842V4.664L11.1802 4.832V11.636C11.1802 12.196 11.1242 12.664 11.0122 13.04C10.9082 13.408 10.6962 13.7 10.3762 13.916C10.0562 14.132 9.59622 14.24 8.99622 14.24ZM15.7191 14.24L12.3351 4.832L11.5311 4.664V4.4H14.8671V4.664L13.7751 4.832L16.3551 11.936L18.1071 7.352L17.2071 4.832L16.1031 4.664V4.4H19.6671V4.664L18.6351 4.808L21.2391 11.924L23.8191 5.204L22.4631 4.664V4.4H25.0431V4.664L24.1311 5.192L20.6991 14.24H20.6031L18.2631 7.772L15.8151 14.24H15.7191Z" fill="white"/>
<path d="M9.10751 19.627H13.9675V20.7745H9.10751V19.627ZM9.22901 23.8255H14.737V25H7.87901V15.55H14.548V16.7245H9.22901V23.8255ZM14.6305 25L18.559 19.6405V20.68L14.8465 15.55H16.3855L19.3285 19.5865L18.721 19.6L21.6505 15.55H23.122L19.4365 20.599V19.627L23.365 25H21.8125L18.6805 20.6935H19.2745L16.183 25H14.6305Z" fill="#E56528"/>
</svg>
