<svg width="200" height="200" viewBox="0 0 200 200" fill="none" xmlns="http://www.w3.org/2000/svg">
<path d="M76 76.4557H124.544M76 76.4557V125M76 76.4557L92.4557 60M76 76.4557L124.544 125M76 76.4557C77.9747 76.4557 120.156 65.4852 141 60M124.544 76.4557V125M124.544 76.4557L141 60M124.544 76.4557L76 125M124.544 76.4557L92.4557 60M124.544 76.4557L141 108.544M124.544 125H76M124.544 125L141 108.544M124.544 125L141 60M141 60V108.544M141 60H92.4557" stroke="white" stroke-width="2" stroke-linejoin="round"/>
<path d="M64.4565 70.3801L69.3125 65.4386L71.164 72.1148L64.4565 70.3801Z" stroke="#757575" stroke-width="2" stroke-linejoin="round"/>
<line x1="35.7071" y1="36.2929" x2="66.7071" y2="67.2929" stroke="#757575" stroke-width="2"/>
<path d="M32.45 38.3491L30.6569 31.6569L37.349 33.4501L32.45 38.3491Z" stroke="#757575" stroke-width="2" stroke-linejoin="round"/>
<path d="M164.456 169.38L169.313 164.439L171.164 171.115L164.456 169.38Z" stroke="#757575" stroke-width="2" stroke-linejoin="round"/>
<line x1="135.707" y1="135.293" x2="166.707" y2="166.293" stroke="#757575" stroke-width="2"/>
<path d="M132.45 137.349L130.657 130.657L137.349 132.45L132.45 137.349Z" stroke="#757575" stroke-width="2" stroke-linejoin="round"/>
<path d="M69.3801 136.543L64.4386 131.687L71.1148 129.836L69.3801 136.543Z" stroke="#757575" stroke-width="2" stroke-linejoin="round"/>
<line x1="35.2929" y1="165.293" x2="66.2929" y2="134.293" stroke="#757575" stroke-width="2"/>
<path d="M37.3491 168.55L30.6569 170.343L32.4501 163.651L37.3491 168.55Z" stroke="#757575" stroke-width="2" stroke-linejoin="round"/>
<path d="M169.38 37.1661L164.439 32.31L171.115 30.4586L169.38 37.1661Z" stroke="#757575" stroke-width="2" stroke-linejoin="round"/>
<line x1="135.293" y1="65.9159" x2="166.293" y2="34.9159" stroke="#757575" stroke-width="2"/>
<path d="M137.349 69.173L130.657 70.9662L132.45 64.2741L137.349 69.173Z" stroke="#757575" stroke-width="2" stroke-linejoin="round"/>
</svg>
