<svg width="25" height="25" viewBox="0 0 25 25" fill="none" xmlns="http://www.w3.org/2000/svg">
<path d="M6.25008 13.5415C6.25008 11.8228 6.948 10.2603 8.08341 9.12484L6.60425 7.64567C5.0432 9.21072 4.16661 11.331 4.16675 13.5415C4.16675 17.7915 7.34383 21.2915 11.4584 21.8019V19.6978C8.5105 19.1978 6.25008 16.6353 6.25008 13.5415ZM20.8334 13.5415C20.8334 8.93734 17.1042 5.20817 12.5001 5.20817C12.4376 5.20817 12.3751 5.21859 12.3126 5.21859L13.448 4.08317L11.9792 2.604L8.33341 6.24984L11.9792 9.89567L13.448 8.42692L12.323 7.30192C12.3855 7.30192 12.448 7.2915 12.5001 7.2915C15.948 7.2915 18.7501 10.0936 18.7501 13.5415C18.7501 16.6353 16.4897 19.1978 13.5417 19.6978V21.8019C17.6563 21.2915 20.8334 17.7915 20.8334 13.5415Z" fill="white"/>
</svg>
