<svg width="186" height="159" viewBox="0 0 186 159" fill="none" xmlns="http://www.w3.org/2000/svg">
<path d="M183.667 146.286V92.7143C183.667 86.7969 176.742 82 168.2 82L44.4666 82C35.9246 82 29 86.7969 29 92.7143V146.286C29 152.203 35.9246 157 44.4666 157H168.2C176.742 157 183.667 152.203 183.667 146.286Z" stroke="white" stroke-width="4" stroke-linecap="round" stroke-linejoin="round"/>
<path d="M59.9333 119.5V119.555" stroke="white" stroke-width="4" stroke-linecap="round" stroke-linejoin="round"/>
<path fill-rule="evenodd" clip-rule="evenodd" d="M6.7822 7.66897C5.10271 10.0934 4 13.5513 4 17.4667V141.2C4 145.115 5.10271 148.573 6.7822 150.998C8.46705 153.43 10.5969 154.667 12.7143 154.667H28.4029C29.2508 155.601 30.2166 156.433 31.2523 157.15C32.0646 157.713 32.9365 158.22 33.8579 158.667H12.7143C8.91436 158.667 5.68704 156.441 3.49409 153.275C1.29576 150.102 0 145.827 0 141.2V17.4667C0 12.8401 1.29576 8.56459 3.49409 5.39119C5.68704 2.22554 8.91436 0 12.7143 0H66.2857C70.0856 0 73.313 2.22554 75.5059 5.39119C77.7042 8.56459 79 12.8401 79 17.4667V78H75V17.4667C75 13.5513 73.8973 10.0934 72.2178 7.66897C70.533 5.23679 68.4031 4 66.2857 4H12.7143C10.5969 4 8.46705 5.23679 6.7822 7.66897ZM75.6926 153H70.4367C71.0674 152.462 71.6664 151.794 72.2178 150.998C73.8973 148.573 75 145.115 75 141.2V86H79V141.2C79 145.694 77.7774 149.857 75.6926 153Z" fill="#E2E2E2"/>
<path d="M88.5 31V34.5C104.1 39.7 107 50.6667 106.5 55.5H101L111 70L121 55.5H114.5C112.5 36.7 96.3333 31.3333 88.5 31Z" fill="white"/>
</svg>
