{"asset":{"generator":"Khronos glTF Blender I/O v0.9.36","version":"2.0"},"scene":0,"scenes":[{"name":"Scene","nodes":[0]}],"nodes":[{"mesh":0,"name":"Backplane"}],"materials":[{"doubleSided":true,"name":"JWST-bracket2-fl","pbrMetallicRoughness":{"baseColorFactor":[0.461539626121521,0.461539626121521,0.461539626121521,1],"metallicFactor":0,"roughnessFactor":0.5}},{"doubleSided":true,"name":"JWST-silver-sm","pbrMetallicRoughness":{"baseColorFactor":[0.8267490863800049,0.8280613422393799,0.8051880598068237,1],"metallicFactor":0,"roughnessFactor":0.5}},{"doubleSided":true,"name":"JWST-bracket2-sm","pbrMetallicRoughness":{"baseColorFactor":[0.461539626121521,0.461539626121521,0.461539626121521,1],"metallicFactor":0,"roughnessFactor":0.5}},{"doubleSided":true,"name":"JWST-black-sm","pbrMetallicRoughness":{"baseColorFactor":[0.12217898666858673,0.12217898666858673,0.12217898666858673,1],"metallicFactor":0,"roughnessFactor":0.5}},{"doubleSided":true,"name":"JWST-black-fl","pbrMetallicRoughness":{"baseColorFactor":[0.12217898666858673,0.12217898666858673,0.12217898666858673,1],"metallicFactor":0,"roughnessFactor":0.5}},{"doubleSided":true,"name":"JWST-bracket1-sm","pbrMetallicRoughness":{"baseColorFactor":[0.16742198169231415,0.16742198169231415,0.16742198169231415,1],"metallicFactor":0,"roughnessFactor":0.5}},{"doubleSided":true,"name":"JWST-TopReflector","pbrMetallicRoughness":{"baseColorFactor":[0.7843137383460999,0.5477988719940186,0.1576562076807022,1],"metallicFactor":0,"roughnessFactor":0.5}},{"doubleSided":true,"name":"JWST-greyfla-fl","pbrMetallicRoughness":{"baseColorFactor":[0.4013964533805847,0.40277040004730225,0.4063935875892639,1],"metallicFactor":0,"roughnessFactor":0.5}},{"doubleSided":true,"name":"JWST-bracket1-fl","pbrMetallicRoughness":{"baseColorFactor":[0.6515907645225525,0.6515907645225525,0.6515907645225525,1],"metallicFactor":0,"roughnessFactor":0.5}},{"doubleSided":true,"name":"JWST-instrument-silverfoil-sm","pbrMetallicRoughness":{"baseColorFactor":[0.7460216283798218,0.7460393309593201,0.746029794216156,0.4099999964237213],"metallicFactor":0,"roughnessFactor":0.5}},{"doubleSided":true,"name":"JWST-instrument-silverfoil-2-sm","pbrMetallicRoughness":{"baseColorFactor":[0.4792512059211731,0.47926294803619385,0.47925662994384766,0.5849999785423279],"metallicFactor":0,"roughnessFactor":0.5}},{"doubleSided":true,"name":"Default","pbrMetallicRoughness":{"baseColorFactor":[0.7843137979507446,0.7843137979507446,0.7843137979507446,1],"metallicFactor":0,"roughnessFactor":0.5}}],"meshes":[{"name":"JWST-2016-with-instruments","primitives":[{"attributes":{"POSITION":0,"NORMAL":1,"TEXCOORD_0":2},"indices":3,"material":0},{"attributes":{"POSITION":4,"NORMAL":5,"TEXCOORD_0":6},"indices":7,"material":1},{"attributes":{"POSITION":8,"NORMAL":9,"TEXCOORD_0":10},"indices":11,"material":2},{"attributes":{"POSITION":12,"NORMAL":13,"TEXCOORD_0":14},"indices":15,"material":3},{"attributes":{"POSITION":16,"NORMAL":17,"TEXCOORD_0":18},"indices":19,"material":4},{"attributes":{"POSITION":20,"NORMAL":21,"TEXCOORD_0":22},"indices":23,"material":5},{"attributes":{"POSITION":24,"NORMAL":25,"TEXCOORD_0":26},"indices":27,"material":6},{"attributes":{"POSITION":28,"NORMAL":29,"TEXCOORD_0":30},"indices":31,"material":7},{"attributes":{"POSITION":32,"NORMAL":33,"TEXCOORD_0":34},"indices":35,"material":8},{"attributes":{"POSITION":36,"NORMAL":37,"TEXCOORD_0":38},"indices":39,"material":9},{"attributes":{"POSITION":40,"NORMAL":41,"TEXCOORD_0":42},"indices":43,"material":10},{"attributes":{"POSITION":44,"NORMAL":45,"TEXCOORD_0":46},"indices":47,"material":11}]}],"accessors":[{"bufferView":0,"componentType":5126,"count":100,"max":[2.6600000858306885,7.251073360443115,1.942761778831482],"min":[-2.700000047683716,0.7200473546981812,1.0199999809265137],"type":"VEC3"},{"bufferView":1,"componentType":5126,"count":100,"type":"VEC3"},{"bufferView":2,"componentType":5126,"count":100,"type":"VEC2"},{"bufferView":3,"componentType":5123,"count":126,"type":"SCALAR"},{"bufferView":4,"componentType":5126,"count":36,"max":[0.23804700374603271,0.8587287664413452,0.8206104040145874],"min":[-0.26328179240226746,0.3582552373409271,0.3192813992500305],"type":"VEC3"},{"bufferView":5,"componentType":5126,"count":36,"type":"VEC3"},{"bufferView":6,"componentType":5126,"count":36,"type":"VEC2"},{"bufferView":7,"componentType":5123,"count":138,"type":"SCALAR"},{"bufferView":8,"componentType":5126,"count":604,"max":[1.2559384107589722,7.974298000335693,2.2301185131073],"min":[-1.2745670080184937,4.87290096282959,-1.0123344659805298],"type":"VEC3"},{"bufferView":9,"componentType":5126,"count":604,"type":"VEC3"},{"bufferView":10,"componentType":5126,"count":604,"type":"VEC2"},{"bufferView":11,"componentType":5123,"count":1524,"type":"SCALAR"},{"bufferView":12,"componentType":5126,"count":5892,"max":[2.8077988624572754,7.100902080535889,2.6383891105651855],"min":[-2.833683967590332,-1.1290159225463867,-1.1862419843673706],"type":"VEC3"},{"bufferView":13,"componentType":5126,"count":5892,"type":"VEC3"},{"bufferView":14,"componentType":5126,"count":5892,"type":"VEC2"},{"bufferView":15,"componentType":5123,"count":18258,"type":"SCALAR"},{"bufferView":16,"componentType":5126,"count":204,"max":[0.3708156943321228,2.6642699241638184,-0.5094876885414124],"min":[-0.1664094477891922,2.5346732139587402,-0.5140132308006287],"type":"VEC3"},{"bufferView":17,"componentType":5126,"count":204,"type":"VEC3"},{"bufferView":18,"componentType":5126,"count":204,"type":"VEC2"},{"bufferView":19,"componentType":5123,"count":204,"type":"SCALAR"},{"bufferView":20,"componentType":5126,"count":1529,"max":[3.0980067253112793,8.09609317779541,2.2608561515808105],"min":[-3.130006790161133,0.2150000035762787,1.274924874305725],"type":"VEC3"},{"bufferView":21,"componentType":5126,"count":1529,"type":"VEC3"},{"bufferView":22,"componentType":5126,"count":1529,"type":"VEC2"},{"bufferView":23,"componentType":5123,"count":2541,"type":"SCALAR"},{"bufferView":24,"componentType":5126,"count":2200,"max":[2.789233922958374,8.071318626403809,2.6383891105651855],"min":[-1.665798306465149,0.5007425546646118,-1.0724254846572876],"type":"VEC3"},{"bufferView":25,"componentType":5126,"count":2200,"type":"VEC3"},{"bufferView":26,"componentType":5126,"count":2200,"type":"VEC2"},{"bufferView":27,"componentType":5123,"count":7290,"type":"SCALAR"},{"bufferView":28,"componentType":5126,"count":160,"max":[1.2457857131958008,4.677693843841553,0.9802588820457458],"min":[-1.2716706991195679,4.1956634521484375,0.7427588105201721],"type":"VEC3"},{"bufferView":29,"componentType":5126,"count":160,"type":"VEC3"},{"bufferView":30,"componentType":5126,"count":160,"type":"VEC2"},{"bufferView":31,"componentType":5123,"count":216,"type":"SCALAR"},{"bufferView":32,"componentType":5126,"count":24,"max":[-1.2100850343704224,5.039984226226807,-0.11533112078905106],"min":[-1.274685025215149,4.852995872497559,-0.2953256666660309],"type":"VEC3"},{"bufferView":33,"componentType":5126,"count":24,"type":"VEC3"},{"bufferView":34,"componentType":5126,"count":24,"type":"VEC2"},{"bufferView":35,"componentType":5123,"count":36,"type":"SCALAR"},{"bufferView":36,"componentType":5126,"count":68,"max":[0.38007810711860657,2.6741724014282227,-0.08883627504110336],"min":[-0.17567183077335358,1.9679981470108032,-0.5139788389205933],"type":"VEC3"},{"bufferView":37,"componentType":5126,"count":68,"type":"VEC3"},{"bufferView":38,"componentType":5126,"count":68,"type":"VEC2"},{"bufferView":39,"componentType":5123,"count":102,"type":"SCALAR"},{"bufferView":40,"componentType":5126,"count":344,"max":[0.3708156943321228,2.665238857269287,-0.4817172586917877],"min":[-0.1664094477891922,2.5346732139587402,-0.5140132308006287],"type":"VEC3"},{"bufferView":41,"componentType":5126,"count":344,"type":"VEC3"},{"bufferView":42,"componentType":5126,"count":344,"type":"VEC2"},{"bufferView":43,"componentType":5123,"count":612,"type":"SCALAR"},{"bufferView":44,"componentType":5126,"count":7230,"max":[0.04667472839355469,0.009548518806695938,0.5],"min":[-0.04667520523071289,-0.007713993079960346,0.4999999403953552],"type":"VEC3"},{"bufferView":45,"componentType":5126,"count":7230,"type":"VEC3"},{"bufferView":46,"componentType":5126,"count":7230,"type":"VEC2"},{"bufferView":47,"componentType":5123,"count":7242,"type":"SCALAR"}],"bufferViews":[{"buffer":0,"byteLength":1200,"byteOffset":0},{"buffer":0,"byteLength":1200,"byteOffset":1200},{"buffer":0,"byteLength":800,"byteOffset":2400},{"buffer":0,"byteLength":252,"byteOffset":3200},{"buffer":0,"byteLength":432,"byteOffset":3452},{"buffer":0,"byteLength":432,"byteOffset":3884},{"buffer":0,"byteLength":288,"byteOffset":4316},{"buffer":0,"byteLength":276,"byteOffset":4604},{"buffer":0,"byteLength":7248,"byteOffset":4880},{"buffer":0,"byteLength":7248,"byteOffset":12128},{"buffer":0,"byteLength":4832,"byteOffset":19376},{"buffer":0,"byteLength":3048,"byteOffset":24208},{"buffer":0,"byteLength":70704,"byteOffset":27256},{"buffer":0,"byteLength":70704,"byteOffset":97960},{"buffer":0,"byteLength":47136,"byteOffset":168664},{"buffer":0,"byteLength":36516,"byteOffset":215800},{"buffer":0,"byteLength":2448,"byteOffset":252316},{"buffer":0,"byteLength":2448,"byteOffset":254764},{"buffer":0,"byteLength":1632,"byteOffset":257212},{"buffer":0,"byteLength":408,"byteOffset":258844},{"buffer":0,"byteLength":18348,"byteOffset":259252},{"buffer":0,"byteLength":18348,"byteOffset":277600},{"buffer":0,"byteLength":12232,"byteOffset":295948},{"buffer":0,"byteLength":5082,"byteOffset":308180},{"buffer":0,"byteLength":26400,"byteOffset":313264},{"buffer":0,"byteLength":26400,"byteOffset":339664},{"buffer":0,"byteLength":17600,"byteOffset":366064},{"buffer":0,"byteLength":14580,"byteOffset":383664},{"buffer":0,"byteLength":1920,"byteOffset":398244},{"buffer":0,"byteLength":1920,"byteOffset":400164},{"buffer":0,"byteLength":1280,"byteOffset":402084},{"buffer":0,"byteLength":432,"byteOffset":403364},{"buffer":0,"byteLength":288,"byteOffset":403796},{"buffer":0,"byteLength":288,"byteOffset":404084},{"buffer":0,"byteLength":192,"byteOffset":404372},{"buffer":0,"byteLength":72,"byteOffset":404564},{"buffer":0,"byteLength":816,"byteOffset":404636},{"buffer":0,"byteLength":816,"byteOffset":405452},{"buffer":0,"byteLength":544,"byteOffset":406268},{"buffer":0,"byteLength":204,"byteOffset":406812},{"buffer":0,"byteLength":4128,"byteOffset":407016},{"buffer":0,"byteLength":4128,"byteOffset":411144},{"buffer":0,"byteLength":2752,"byteOffset":415272},{"buffer":0,"byteLength":1224,"byteOffset":418024},{"buffer":0,"byteLength":86760,"byteOffset":419248},{"buffer":0,"byteLength":86760,"byteOffset":506008},{"buffer":0,"byteLength":57840,"byteOffset":592768},{"buffer":0,"byteLength":14484,"byteOffset":650608}],"buffers":[{"byteLength":665092,"uri":"data:application/octet-stream;base64,"}]}