<svg width="200" height="200" viewBox="0 0 200 200" fill="none" xmlns="http://www.w3.org/2000/svg">
<path d="M76 76.4557H124.544M76 76.4557V125M76 76.4557L92.4557 60M76 76.4557L124.544 125M76 76.4557C77.9747 76.4557 120.156 65.4852 141 60M124.544 76.4557V125M124.544 76.4557L141 60M124.544 76.4557L76 125M124.544 76.4557L92.4557 60M124.544 76.4557L141 108.544M124.544 125H76M124.544 125L141 108.544M124.544 125L141 60M141 60V108.544M141 60H92.4557" stroke="white" stroke-width="2" stroke-linejoin="round"/>
<path d="M154 110.5C154 114.944 152.596 119.37 149.828 123.531C147.058 127.698 142.973 131.517 137.776 134.753C132.581 137.989 126.394 140.567 119.563 142.329C112.733 144.091 105.405 145 97.9999 145" stroke="#757575" stroke-width="2" stroke-linejoin="round"/>
<path d="M150.536 110L154 104L157.464 110H150.536Z" stroke="#757575" stroke-width="2" stroke-linejoin="round"/>
<path d="M97 148.464L91 145L97 141.536V148.464Z" stroke="#757575" stroke-width="2" stroke-linejoin="round"/>
</svg>
