{"asset":{"generator":"Khronos glTF Blender I/O v1.8.19","version":"2.0"},"scene":0,"scenes":[{"name":"Scene","nodes":[0]}],"nodes":[{"mesh":0,"name":"Gold Plating"}],"materials":[{"doubleSided":true,"name":"JWST-TopReflector","pbrMetallicRoughness":{"baseColorFactor":[0.7843137383460999,0.5477988719940186,0.1576562076807022,1],"metallicFactor":0,"roughnessFactor":0.5}},{"doubleSided":true,"name":"JWST-TopReflector-fl","pbrMetallicRoughness":{"baseColorFactor":[0.7843137383460999,0.5490196347236633,0.1568627506494522,1],"metallicFactor":0,"roughnessFactor":0.5}}],"meshes":[{"name":"JWST-2016-with-instruments","primitives":[{"attributes":{"POSITION":0,"NORMAL":1,"TEXCOORD_0":2},"indices":3,"material":0},{"attributes":{"POSITION":4,"NORMAL":5,"TEXCOORD_0":6},"indices":7,"material":1}]}],"accessors":[{"bufferView":0,"componentType":5126,"count":1842,"max":[2.872096300125122,6.490403652191162,1.754056453704834],"min":[-2.8979263305664062,0.25628337264060974,1.3406319618225098],"type":"VEC3"},{"bufferView":1,"componentType":5126,"count":1842,"type":"VEC3"},{"bufferView":2,"componentType":5126,"count":1842,"type":"VEC2"},{"bufferView":3,"componentType":5123,"count":2979,"type":"SCALAR"},{"bufferView":4,"componentType":5126,"count":2244,"max":[2.872096300125122,6.490403652191162,1.754056453704834],"min":[-2.8979263305664062,0.25628337264060974,1.3406319618225098],"type":"VEC3"},{"bufferView":5,"componentType":5126,"count":2244,"type":"VEC3"},{"bufferView":6,"componentType":5126,"count":2244,"type":"VEC2"},{"bufferView":7,"componentType":5123,"count":2271,"type":"SCALAR"}],"bufferViews":[{"buffer":0,"byteLength":22104,"byteOffset":0},{"buffer":0,"byteLength":22104,"byteOffset":22104},{"buffer":0,"byteLength":14736,"byteOffset":44208},{"buffer":0,"byteLength":5958,"byteOffset":58944},{"buffer":0,"byteLength":26928,"byteOffset":64904},{"buffer":0,"byteLength":26928,"byteOffset":91832},{"buffer":0,"byteLength":17952,"byteOffset":118760},{"buffer":0,"byteLength":4542,"byteOffset":136712}],"buffers":[{"byteLength":141256,"uri":"77ec8f7a24da45387c955c404d40d983.bin"}]}