{"asset":{"generator":"Khronos glTF Blender I/O v1.8.19","version":"2.0"},"scene":0,"scenes":[{"name":"Scene","nodes":[0]}],"nodes":[{"mesh":0,"name":"BUS"}],"materials":[{"doubleSided":true,"name":"JWST-bracket2-fl","pbrMetallicRoughness":{"baseColorFactor":[0.461539626121521,0.461539626121521,0.461539626121521,1],"metallicFactor":0,"roughnessFactor":0.5}},{"doubleSided":true,"name":"JWST-bottom-box-PURPLEY","pbrMetallicRoughness":{"baseColorFactor":[0.6561074256896973,0.44991225004196167,0.6045624613761902,1],"metallicFactor":0,"roughnessFactor":0.5}},{"doubleSided":true,"name":"JWST-silver-sm","pbrMetallicRoughness":{"baseColorFactor":[0.8267490863800049,0.8280613422393799,0.8051880598068237,1],"metallicFactor":0,"roughnessFactor":0.5}},{"doubleSided":true,"name":"JWST-bracket2-sm","pbrMetallicRoughness":{"baseColorFactor":[0.461539626121521,0.461539626121521,0.461539626121521,1],"metallicFactor":0,"roughnessFactor":0.5}},{"doubleSided":true,"name":"JWST-black-sm","pbrMetallicRoughness":{"baseColorFactor":[0.12217898666858673,0.12217898666858673,0.12217898666858673,1],"metallicFactor":0,"roughnessFactor":0.5}},{"doubleSided":true,"name":"JWST-black-fl","pbrMetallicRoughness":{"baseColorFactor":[0.12217898666858673,0.12217898666858673,0.12217898666858673,1],"metallicFactor":0,"roughnessFactor":0.5}},{"doubleSided":true,"name":"JWST-bracket1-sm","pbrMetallicRoughness":{"baseColorFactor":[0.16742198169231415,0.16742198169231415,0.16742198169231415,1],"metallicFactor":0,"roughnessFactor":0.5}},{"doubleSided":true,"name":"JWST-bronze-sm","pbrMetallicRoughness":{"baseColorFactor":[0.7782863974571228,0.740199863910675,0.574013888835907,1],"metallicFactor":0,"roughnessFactor":0.5}},{"doubleSided":true,"name":"JWST-silver2-fl","pbrMetallicRoughness":{"baseColorFactor":[0.6957350969314575,0.6968337297439575,0.6775920987129211,1],"metallicFactor":0,"roughnessFactor":0.5}},{"doubleSided":true,"name":"JWST-silver-fl","pbrMetallicRoughness":{"baseColorFactor":[0.8267490863800049,0.8280613422393799,0.8051880598068237,1],"metallicFactor":0,"roughnessFactor":0.5}},{"doubleSided":true,"name":"JWST-bottom-box-bot-PURPLEY","pbrMetallicRoughness":{"baseColorFactor":[0.6561074256896973,0.44991225004196167,0.6045624613761902,1],"metallicFactor":0,"roughnessFactor":0.5}},{"doubleSided":true,"name":"JWST-bottom-box-bot-fl-PURPLEY","pbrMetallicRoughness":{"baseColorFactor":[0.6561074256896973,0.44991225004196167,0.6045624613761902,1],"metallicFactor":0,"roughnessFactor":0.5}},{"doubleSided":true,"name":"sc_rad_smli1","pbrMetallicRoughness":{"baseColorFactor":[0.08666666597127914,0.08000000566244125,0.10000000149011612,1],"metallicFactor":0,"roughnessFactor":0.5}},{"doubleSided":true,"name":"blackpaint_lambert1","pbrMetallicRoughness":{"baseColorFactor":[0.20000000298023224,0.20000000298023224,0.20000000298023224,1],"metallicFactor":0,"roughnessFactor":0.5}},{"doubleSided":true,"name":"sc_post_pmli1","pbrMetallicRoughness":{"baseColorFactor":[0.15000000596046448,0.10499999672174454,0.12000001221895218,1],"metallicFactor":0,"roughnessFactor":0.5}},{"doubleSided":true,"name":"JWST-gold-nofoil-sm","pbrMetallicRoughness":{"baseColorFactor":[0.7647058963775635,0.6585641503334045,0.26363012194633484,1],"metallicFactor":0,"roughnessFactor":0.5}},{"doubleSided":true,"name":"whitepaint_lambert","pbrMetallicRoughness":{"metallicFactor":0,"roughnessFactor":0.5}}],"meshes":[{"name":"JWST-2016-with-instruments","primitives":[{"attributes":{"POSITION":0,"NORMAL":1,"TEXCOORD_0":2},"indices":3,"material":0},{"attributes":{"POSITION":4,"NORMAL":5,"TEXCOORD_0":6},"indices":7,"material":1},{"attributes":{"POSITION":8,"NORMAL":9,"TEXCOORD_0":10},"indices":11,"material":2},{"attributes":{"POSITION":12,"NORMAL":13,"TEXCOORD_0":14},"indices":15,"material":3},{"attributes":{"POSITION":16,"NORMAL":17,"TEXCOORD_0":18},"indices":19,"material":4},{"attributes":{"POSITION":20,"NORMAL":21,"TEXCOORD_0":22},"indices":23,"material":5},{"attributes":{"POSITION":24,"NORMAL":25,"TEXCOORD_0":26},"indices":27,"material":6},{"attributes":{"POSITION":28,"NORMAL":29,"TEXCOORD_0":30},"indices":31,"material":7},{"attributes":{"POSITION":32,"NORMAL":33,"TEXCOORD_0":34},"indices":35,"material":8},{"attributes":{"POSITION":36,"NORMAL":37,"TEXCOORD_0":38},"indices":39,"material":9},{"attributes":{"POSITION":40,"NORMAL":41,"TEXCOORD_0":42},"indices":43,"material":10},{"attributes":{"POSITION":44,"NORMAL":45,"TEXCOORD_0":46},"indices":47,"material":11},{"attributes":{"POSITION":48,"NORMAL":49,"TEXCOORD_0":50},"indices":51,"material":12},{"attributes":{"POSITION":52,"NORMAL":53,"TEXCOORD_0":54},"indices":55,"material":13},{"attributes":{"POSITION":56,"NORMAL":57,"TEXCOORD_0":58},"indices":59,"material":14},{"attributes":{"POSITION":60,"NORMAL":61,"TEXCOORD_0":62},"indices":63,"material":15},{"attributes":{"POSITION":64,"NORMAL":65,"TEXCOORD_0":66},"indices":67,"material":16}]}],"accessors":[{"bufferView":0,"componentType":5126,"count":390,"max":[-0.3700000047683716,-2.2999370098114014,-1.6222196817398071],"min":[-1.0577439069747925,-3.0926294326782227,-2.115715265274048],"type":"VEC3"},{"bufferView":1,"componentType":5126,"count":390,"type":"VEC3"},{"bufferView":2,"componentType":5126,"count":390,"type":"VEC2"},{"bufferView":3,"componentType":5123,"count":393,"type":"SCALAR"},{"bufferView":4,"componentType":5126,"count":687,"max":[1.5594632625579834,-1.0643641948699951,1.132237434387207],"min":[-1.4079999923706055,-2.4992971420288086,-1.6492373943328857],"type":"VEC3"},{"bufferView":5,"componentType":5126,"count":687,"type":"VEC3"},{"bufferView":6,"componentType":5126,"count":687,"type":"VEC2"},{"bufferView":7,"componentType":5123,"count":1374,"type":"SCALAR"},{"bufferView":8,"componentType":5126,"count":834,"max":[1.3200000524520874,-2.259998083114624,1.1990000009536743],"min":[-1.3200000524520874,-2.549999952316284,-1.7050000429153442],"type":"VEC3"},{"bufferView":9,"componentType":5126,"count":834,"type":"VEC3"},{"bufferView":10,"componentType":5126,"count":834,"type":"VEC2"},{"bufferView":11,"componentType":5123,"count":1752,"type":"SCALAR"},{"bufferView":12,"componentType":5126,"count":297,"max":[1.149999976158142,-1.0699999332427979,1.1549999713897705],"min":[-1.1449999809265137,-2.6480095386505127,-2.150191068649292],"type":"VEC3"},{"bufferView":13,"componentType":5126,"count":297,"type":"VEC3"},{"bufferView":14,"componentType":5126,"count":297,"type":"VEC2"},{"bufferView":15,"componentType":5123,"count":504,"type":"SCALAR"},{"bufferView":16,"componentType":5126,"count":952,"max":[1.5,-1.200422763824463,1.7322275638580322],"min":[-1.4175386428833008,-2.584632158279419,-0.6121145486831665],"type":"VEC3"},{"bufferView":17,"componentType":5126,"count":952,"type":"VEC3"},{"bufferView":18,"componentType":5126,"count":952,"type":"VEC2"},{"bufferView":19,"componentType":5123,"count":1572,"type":"SCALAR"},{"bufferView":20,"componentType":5126,"count":391,"max":[1.5,-1.440000057220459,1.1549999713897705],"min":[-1.3880000114440918,-2.6084115505218506,-2.106633424758911],"type":"VEC3"},{"bufferView":21,"componentType":5126,"count":391,"type":"VEC3"},{"bufferView":22,"componentType":5126,"count":391,"type":"VEC2"},{"bufferView":23,"componentType":5123,"count":420,"type":"SCALAR"},{"bufferView":24,"componentType":5126,"count":853,"max":[1.3700000047683716,-1.299752950668335,1.7638792991638184],"min":[-0.08075419813394547,-2.6480095386505127,-2.150191068649292],"type":"VEC3"},{"bufferView":25,"componentType":5126,"count":853,"type":"VEC3"},{"bufferView":26,"componentType":5126,"count":853,"type":"VEC2"},{"bufferView":27,"componentType":5123,"count":1518,"type":"SCALAR"},{"bufferView":28,"componentType":5126,"count":338,"max":[1.10237717628479,-2.2866249084472656,1.6866862773895264],"min":[0.017430758103728294,-2.645202159881592,-2.1493027210235596],"type":"VEC3"},{"bufferView":29,"componentType":5126,"count":338,"type":"VEC3"},{"bufferView":30,"componentType":5126,"count":338,"type":"VEC2"},{"bufferView":31,"componentType":5123,"count":516,"type":"SCALAR"},{"bufferView":32,"componentType":5126,"count":65,"max":[-0.38999998569488525,-1.6899999380111694,1.5399999618530273],"min":[-1.399999976158142,-2.0299999713897705,1.1330000162124634],"type":"VEC3"},{"bufferView":33,"componentType":5126,"count":65,"type":"VEC3"},{"bufferView":34,"componentType":5126,"count":65,"type":"VEC2"},{"bufferView":35,"componentType":5123,"count":72,"type":"SCALAR"},{"bufferView":36,"componentType":5126,"count":286,"max":[1.4040000438690186,-1.165000081062317,1.535724401473999],"min":[-1.4040000438690186,-2.407399892807007,-1.540000081062317],"type":"VEC3"},{"bufferView":37,"componentType":5126,"count":286,"type":"VEC3"},{"bufferView":38,"componentType":5126,"count":286,"type":"VEC2"},{"bufferView":39,"componentType":5123,"count":342,"type":"SCALAR"},{"bufferView":40,"componentType":5126,"count":26,"max":[0.9224491715431213,-2.5124263763427734,0.774645209312439],"min":[-0.9201462268829346,-2.5297324657440186,-1.252956509590149],"type":"VEC3"},{"bufferView":41,"componentType":5126,"count":26,"type":"VEC3"},{"bufferView":42,"componentType":5126,"count":26,"type":"VEC2"},{"bufferView":43,"componentType":5123,"count":36,"type":"SCALAR"},{"bufferView":44,"componentType":5126,"count":72,"max":[1.2691504955291748,-2.512500047683716,1.159376859664917],"min":[-1.2681515216827393,-2.5239999294281006,-1.6316554546356201],"type":"VEC3"},{"bufferView":45,"componentType":5126,"count":72,"type":"VEC3"},{"bufferView":46,"componentType":5126,"count":72,"type":"VEC2"},{"bufferView":47,"componentType":5123,"count":72,"type":"SCALAR"},{"bufferView":48,"componentType":5126,"count":4078,"max":[0.9371430277824402,-1.629056692123413,1.5088181495666504],"min":[-1.100906491279602,-3.1614186763763428,-2.133054256439209],"type":"VEC3"},{"bufferView":49,"componentType":5126,"count":4078,"type":"VEC3"},{"bufferView":50,"componentType":5126,"count":4078,"type":"VEC2"},{"bufferView":51,"componentType":5123,"count":4104,"type":"SCALAR"},{"bufferView":52,"componentType":5126,"count":645,"max":[1.0825692415237427,-2.4260342121124268,1.686700701713562],"min":[0.017430758103728294,-2.5894205570220947,1.3298300504684448],"type":"VEC3"},{"bufferView":53,"componentType":5126,"count":645,"type":"VEC3"},{"bufferView":54,"componentType":5126,"count":645,"type":"VEC2"},{"bufferView":55,"componentType":5123,"count":648,"type":"SCALAR"},{"bufferView":56,"componentType":5126,"count":264,"max":[0.8791643977165222,-1.776545524597168,1.3928941488265991],"min":[0.22631165385246277,-2.419624090194702,1.209417700767517],"type":"VEC3"},{"bufferView":57,"componentType":5126,"count":264,"type":"VEC3"},{"bufferView":58,"componentType":5126,"count":264,"type":"VEC2"},{"bufferView":59,"componentType":5123,"count":264,"type":"SCALAR"},{"bufferView":60,"componentType":5126,"count":195,"max":[-0.5836770534515381,-2.3396732807159424,-1.7903631925582886],"min":[-0.7055169939994812,-2.8204619884490967,-1.9241952896118164],"type":"VEC3"},{"bufferView":61,"componentType":5126,"count":195,"type":"VEC3"},{"bufferView":62,"componentType":5126,"count":195,"type":"VEC2"},{"bufferView":63,"componentType":5123,"count":324,"type":"SCALAR"},{"bufferView":64,"componentType":5126,"count":1699,"max":[-0.38768109679222107,-2.7700939178466797,-1.590765118598938],"min":[-1.0988926887512207,-3.1614186763763428,-2.1297903060913086],"type":"VEC3"},{"bufferView":65,"componentType":5126,"count":1699,"type":"VEC3"},{"bufferView":66,"componentType":5126,"count":1699,"type":"VEC2"},{"bufferView":67,"componentType":5123,"count":1710,"type":"SCALAR"}],"bufferViews":[{"buffer":0,"byteLength":4680,"byteOffset":0},{"buffer":0,"byteLength":4680,"byteOffset":4680},{"buffer":0,"byteLength":3120,"byteOffset":9360},{"buffer":0,"byteLength":786,"byteOffset":12480},{"buffer":0,"byteLength":8244,"byteOffset":13268},{"buffer":0,"byteLength":8244,"byteOffset":21512},{"buffer":0,"byteLength":5496,"byteOffset":29756},{"buffer":0,"byteLength":2748,"byteOffset":35252},{"buffer":0,"byteLength":10008,"byteOffset":38000},{"buffer":0,"byteLength":10008,"byteOffset":48008},{"buffer":0,"byteLength":6672,"byteOffset":58016},{"buffer":0,"byteLength":3504,"byteOffset":64688},{"buffer":0,"byteLength":3564,"byteOffset":68192},{"buffer":0,"byteLength":3564,"byteOffset":71756},{"buffer":0,"byteLength":2376,"byteOffset":75320},{"buffer":0,"byteLength":1008,"byteOffset":77696},{"buffer":0,"byteLength":11424,"byteOffset":78704},{"buffer":0,"byteLength":11424,"byteOffset":90128},{"buffer":0,"byteLength":7616,"byteOffset":101552},{"buffer":0,"byteLength":3144,"byteOffset":109168},{"buffer":0,"byteLength":4692,"byteOffset":112312},{"buffer":0,"byteLength":4692,"byteOffset":117004},{"buffer":0,"byteLength":3128,"byteOffset":121696},{"buffer":0,"byteLength":840,"byteOffset":124824},{"buffer":0,"byteLength":10236,"byteOffset":125664},{"buffer":0,"byteLength":10236,"byteOffset":135900},{"buffer":0,"byteLength":6824,"byteOffset":146136},{"buffer":0,"byteLength":3036,"byteOffset":152960},{"buffer":0,"byteLength":4056,"byteOffset":155996},{"buffer":0,"byteLength":4056,"byteOffset":160052},{"buffer":0,"byteLength":2704,"byteOffset":164108},{"buffer":0,"byteLength":1032,"byteOffset":166812},{"buffer":0,"byteLength":780,"byteOffset":167844},{"buffer":0,"byteLength":780,"byteOffset":168624},{"buffer":0,"byteLength":520,"byteOffset":169404},{"buffer":0,"byteLength":144,"byteOffset":169924},{"buffer":0,"byteLength":3432,"byteOffset":170068},{"buffer":0,"byteLength":3432,"byteOffset":173500},{"buffer":0,"byteLength":2288,"byteOffset":176932},{"buffer":0,"byteLength":684,"byteOffset":179220},{"buffer":0,"byteLength":312,"byteOffset":179904},{"buffer":0,"byteLength":312,"byteOffset":180216},{"buffer":0,"byteLength":208,"byteOffset":180528},{"buffer":0,"byteLength":72,"byteOffset":180736},{"buffer":0,"byteLength":864,"byteOffset":180808},{"buffer":0,"byteLength":864,"byteOffset":181672},{"buffer":0,"byteLength":576,"byteOffset":182536},{"buffer":0,"byteLength":144,"byteOffset":183112},{"buffer":0,"byteLength":48936,"byteOffset":183256},{"buffer":0,"byteLength":48936,"byteOffset":232192},{"buffer":0,"byteLength":32624,"byteOffset":281128},{"buffer":0,"byteLength":8208,"byteOffset":313752},{"buffer":0,"byteLength":7740,"byteOffset":321960},{"buffer":0,"byteLength":7740,"byteOffset":329700},{"buffer":0,"byteLength":5160,"byteOffset":337440},{"buffer":0,"byteLength":1296,"byteOffset":342600},{"buffer":0,"byteLength":3168,"byteOffset":343896},{"buffer":0,"byteLength":3168,"byteOffset":347064},{"buffer":0,"byteLength":2112,"byteOffset":350232},{"buffer":0,"byteLength":528,"byteOffset":352344},{"buffer":0,"byteLength":2340,"byteOffset":352872},{"buffer":0,"byteLength":2340,"byteOffset":355212},{"buffer":0,"byteLength":1560,"byteOffset":357552},{"buffer":0,"byteLength":648,"byteOffset":359112},{"buffer":0,"byteLength":20388,"byteOffset":359760},{"buffer":0,"byteLength":20388,"byteOffset":380148},{"buffer":0,"byteLength":13592,"byteOffset":400536},{"buffer":0,"byteLength":3420,"byteOffset":414128}],"buffers":[{"byteLength":417548,"uri":"a7589999e75791f85b86c8676bc186ec.bin"}]}