{
    "asset" : {
        "generator" : "Khronos glTF Blender I/O v1.8.19",
        "version" : "2.0"
    },
    "scene" : 0,
    "scenes" : [
        {
            "name" : "Scene",
            "nodes" : [
                0
            ]
        }
    ],
    "nodes" : [
        {
            "mesh" : 0,
            "name" : "ISIS"
        }
    ],
    "materials" : [
        {
            "doubleSided" : true,
            "name" : "JWST-black-fl",
            "pbrMetallicRoughness" : {
                "baseColorFactor" : [
                    0.12217898666858673,
                    0.12217898666858673,
                    0.12217898666858673,
                    1
                ],
                "metallicFactor" : 0,
                "roughnessFactor" : 0.5
            }
        },
        {
            "doubleSided" : true,
            "name" : "JWST-mirror-sm",
            "pbrMetallicRoughness" : {
                "metallicFactor" : 0,
                "roughnessFactor" : 0.5
            }
        },
        {
            "doubleSided" : true,
            "name" : "JWST-instrument-silverfoil-sm",
            "pbrMetallicRoughness" : {
                "baseColorFactor" : [
                    0.7460216283798218,
                    0.7460393309593201,
                    0.746029794216156,
                    1
                ],
                "metallicFactor" : 0,
                "roughnessFactor" : 0.5
            }
        },
        {
            "doubleSided" : true,
            "name" : "JWST-instrument-silverfoil-2-sm",
            "pbrMetallicRoughness" : {
                "baseColorFactor" : [
                    0.4792512059211731,
                    0.47926294803619385,
                    0.47925662994384766,
                    1
                ],
                "metallicFactor" : 0,
                "roughnessFactor" : 0.5
            }
        },
        {
            "doubleSided" : true,
            "name" : "JWST-instrument-silverfoil-3-sm",
            "pbrMetallicRoughness" : {
                "baseColorFactor" : [
                    0.24645093083381653,
                    0.24645757675170898,
                    0.24645400047302246,
                    1
                ],
                "metallicFactor" : 0,
                "roughnessFactor" : 0.5
            }
        }
    ],
    "meshes" : [
        {
            "name" : "JWST-2016-with-instruments",
            "primitives" : [
                {
                    "attributes" : {
                        "POSITION" : 0,
                        "NORMAL" : 1,
                        "TEXCOORD_0" : 2
                    },
                    "indices" : 3,
                    "material" : 0
                },
                {
                    "attributes" : {
                        "POSITION" : 4,
                        "NORMAL" : 5,
                        "TEXCOORD_0" : 6
                    },
                    "indices" : 7,
                    "material" : 1
                },
                {
                    "attributes" : {
                        "POSITION" : 8,
                        "NORMAL" : 9,
                        "TEXCOORD_0" : 10
                    },
                    "indices" : 11,
                    "material" : 2
                },
                {
                    "attributes" : {
                        "POSITION" : 12,
                        "NORMAL" : 13,
                        "TEXCOORD_0" : 14
                    },
                    "indices" : 15,
                    "material" : 3
                },
                {
                    "attributes" : {
                        "POSITION" : 16,
                        "NORMAL" : 17,
                        "TEXCOORD_0" : 18
                    },
                    "indices" : 19,
                    "material" : 4
                }
            ]
        }
    ],
    "accessors" : [
        {
            "bufferView" : 0,
            "componentType" : 5126,
            "count" : 1224,
            "max" : [
                0.3152407705783844,
                3.764204502105713,
                1.161189079284668
            ],
            "min" : [
                -0.4413850009441376,
                2.0801215171813965,
                -0.1661934107542038
            ],
            "type" : "VEC3"
        },
        {
            "bufferView" : 1,
            "componentType" : 5126,
            "count" : 1224,
            "type" : "VEC3"
        },
        {
            "bufferView" : 2,
            "componentType" : 5126,
            "count" : 1224,
            "type" : "VEC2"
        },
        {
            "bufferView" : 3,
            "componentType" : 5123,
            "count" : 1224,
            "type" : "SCALAR"
        },
        {
            "bufferView" : 4,
            "componentType" : 5126,
            "count" : 48,
            "max" : [
                1.0856575965881348,
                3.7588553428649902,
                -0.05838776007294655
            ],
            "min" : [
                0.7419115900993347,
                3.4203319549560547,
                -0.11807863414287567
            ],
            "type" : "VEC3"
        },
        {
            "bufferView" : 5,
            "componentType" : 5126,
            "count" : 48,
            "type" : "VEC3"
        },
        {
            "bufferView" : 6,
            "componentType" : 5126,
            "count" : 48,
            "type" : "VEC2"
        },
        {
            "bufferView" : 7,
            "componentType" : 5123,
            "count" : 138,
            "type" : "SCALAR"
        },
        {
            "bufferView" : 8,
            "componentType" : 5126,
            "count" : 10426,
            "max" : [
                1.1727359294891357,
                4.276555061340332,
                1.0601451396942139
            ],
            "min" : [
                -1.170884370803833,
                1.9679981470108032,
                -0.8368348479270935
            ],
            "type" : "VEC3"
        },
        {
            "bufferView" : 9,
            "componentType" : 5126,
            "count" : 10426,
            "type" : "VEC3"
        },
        {
            "bufferView" : 10,
            "componentType" : 5126,
            "count" : 10426,
            "type" : "VEC2"
        },
        {
            "bufferView" : 11,
            "componentType" : 5123,
            "count" : 19506,
            "type" : "SCALAR"
        },
        {
            "bufferView" : 12,
            "componentType" : 5126,
            "count" : 7415,
            "max" : [
                1.1333999633789062,
                4.302883148193359,
                1.161189079284668
            ],
            "min" : [
                -1.1510286331176758,
                2.0828490257263184,
                -0.8862582445144653
            ],
            "type" : "VEC3"
        },
        {
            "bufferView" : 13,
            "componentType" : 5126,
            "count" : 7415,
            "type" : "VEC3"
        },
        {
            "bufferView" : 14,
            "componentType" : 5126,
            "count" : 7415,
            "type" : "VEC2"
        },
        {
            "bufferView" : 15,
            "componentType" : 5123,
            "count" : 12693,
            "type" : "SCALAR"
        },
        {
            "bufferView" : 16,
            "componentType" : 5126,
            "count" : 5995,
            "max" : [
                1.1727359294891357,
                4.187885761260986,
                1.0625067949295044
            ],
            "min" : [
                -1.1298606395721436,
                2.305755615234375,
                -0.7808628678321838
            ],
            "type" : "VEC3"
        },
        {
            "bufferView" : 17,
            "componentType" : 5126,
            "count" : 5995,
            "type" : "VEC3"
        },
        {
            "bufferView" : 18,
            "componentType" : 5126,
            "count" : 5995,
            "type" : "VEC2"
        },
        {
            "bufferView" : 19,
            "componentType" : 5123,
            "count" : 9645,
            "type" : "SCALAR"
        }
    ],
    "bufferViews" : [
        {
            "buffer" : 0,
            "byteLength" : 14688,
            "byteOffset" : 0
        },
        {
            "buffer" : 0,
            "byteLength" : 14688,
            "byteOffset" : 14688
        },
        {
            "buffer" : 0,
            "byteLength" : 9792,
            "byteOffset" : 29376
        },
        {
            "buffer" : 0,
            "byteLength" : 2448,
            "byteOffset" : 39168
        },
        {
            "buffer" : 0,
            "byteLength" : 576,
            "byteOffset" : 41616
        },
        {
            "buffer" : 0,
            "byteLength" : 576,
            "byteOffset" : 42192
        },
        {
            "buffer" : 0,
            "byteLength" : 384,
            "byteOffset" : 42768
        },
        {
            "buffer" : 0,
            "byteLength" : 276,
            "byteOffset" : 43152
        },
        {
            "buffer" : 0,
            "byteLength" : 125112,
            "byteOffset" : 43428
        },
        {
            "buffer" : 0,
            "byteLength" : 125112,
            "byteOffset" : 168540
        },
        {
            "buffer" : 0,
            "byteLength" : 83408,
            "byteOffset" : 293652
        },
        {
            "buffer" : 0,
            "byteLength" : 39012,
            "byteOffset" : 377060
        },
        {
            "buffer" : 0,
            "byteLength" : 88980,
            "byteOffset" : 416072
        },
        {
            "buffer" : 0,
            "byteLength" : 88980,
            "byteOffset" : 505052
        },
        {
            "buffer" : 0,
            "byteLength" : 59320,
            "byteOffset" : 594032
        },
        {
            "buffer" : 0,
            "byteLength" : 25386,
            "byteOffset" : 653352
        },
        {
            "buffer" : 0,
            "byteLength" : 71940,
            "byteOffset" : 678740
        },
        {
            "buffer" : 0,
            "byteLength" : 71940,
            "byteOffset" : 750680
        },
        {
            "buffer" : 0,
            "byteLength" : 47960,
            "byteOffset" : 822620
        },
        {
            "buffer" : 0,
            "byteLength" : 19290,
            "byteOffset" : 870580
        }
    ],
    "buffers" : [
        {
            "byteLength" : 889872,
            "uri" : "data:application/octet-stream;base64,"
        }
    ]
}
