{
    "asset" : {
        "generator" : "Khronos glTF Blender I/O v0.9.36",
        "version" : "2.0"
    },
    "scene" : 0,
    "scenes" : [
        {
            "name" : "Scene",
            "nodes" : [
                0,
                1,
                3
            ]
        }
    ],
    "nodes" : [
        {
            "name" : "Light",
            "rotation" : [
                0.16907575726509094,
                0.7558803558349609,
                -0.27217137813568115,
                0.570947527885437
            ],
            "translation" : [
                4.076245307922363,
                5.903861999511719,
                -1.0054539442062378
            ]
        },
        {
            "name" : "Camera",
            "rotation" : [
                0.483536034822464,
                0.33687159419059753,
                -0.20870360732078552,
                0.7804827094078064
            ],
            "translation" : [
                7.358891487121582,
                4.958309173583984,
                6.925790786743164
            ]
        },
        {
            "mesh" : 0,
            "name" : "Button",
            "scale" : [
                1,
                1,
                0.18000000715255737
            ],
            "translation" : [
                0,
                0,
                0.06256002187728882
            ]
        },
        {
            "children" : [
                2
            ],
            "name" : "Yup2Zup",
            "rotation" : [
                0.7071067690849304,
                0,
                0,
                0.7071067690849304
            ]
        }
    ],
    "animations" : [
        {
            "channels" : [
                {
                    "sampler" : 0,
                    "target" : {
                        "node" : 2,
                        "path" : "scale"
                    }
                }
            ],
            "name" : "push_Button",
            "samplers" : [
                {
                    "input" : 12,
                    "interpolation" : "LINEAR",
                    "output" : 13
                }
            ]
        }
    ],
    "materials" : [
        {
            "doubleSided" : true,
            "name" : "red",
            "pbrMetallicRoughness" : {
                "baseColorFactor" : [
                    0.8000000715255737,
                    0.0039004588034003973,
                    0,
                    1
                ],
                "metallicFactor" : 0,
                "roughnessFactor" : 0.5
            }
        },
        {
            "doubleSided" : true,
            "name" : "white",
            "pbrMetallicRoughness" : {
                "baseColorFactor" : [
                    1,
                    1,
                    1,
                    1
                ],
                "metallicFactor" : 0,
                "roughnessFactor" : 0.5
            }
        },
        {
            "doubleSided" : true,
            "name" : "black",
            "pbrMetallicRoughness" : {
                "baseColorFactor" : [
                    0,
                    0,
                    0,
                    1
                ],
                "metallicFactor" : 0,
                "roughnessFactor" : 0.5
            }
        }
    ],
    "meshes" : [
        {
            "name" : "button",
            "primitives" : [
                {
                    "attributes" : {
                        "POSITION" : 0,
                        "NORMAL" : 1,
                        "TEXCOORD_0" : 2
                    },
                    "indices" : 3,
                    "material" : 0
                },
                {
                    "attributes" : {
                        "POSITION" : 4,
                        "NORMAL" : 5,
                        "TEXCOORD_0" : 6
                    },
                    "indices" : 7,
                    "material" : 1
                },
                {
                    "attributes" : {
                        "POSITION" : 8,
                        "NORMAL" : 9,
                        "TEXCOORD_0" : 10
                    },
                    "indices" : 11,
                    "material" : 2
                }
            ]
        }
    ],
    "accessors" : [
        {
            "bufferView" : 0,
            "componentType" : 5126,
            "count" : 346,
            "max" : [
                1,
                1,
                1
            ],
            "min" : [
                -1,
                -1,
                -1
            ],
            "type" : "VEC3"
        },
        {
            "bufferView" : 1,
            "componentType" : 5126,
            "count" : 346,
            "type" : "VEC3"
        },
        {
            "bufferView" : 2,
            "componentType" : 5126,
            "count" : 346,
            "type" : "VEC2"
        },
        {
            "bufferView" : 3,
            "componentType" : 5123,
            "count" : 372,
            "type" : "SCALAR"
        },
        {
            "bufferView" : 4,
            "componentType" : 5126,
            "count" : 778,
            "max" : [
                0.7922166585922241,
                0.22097405791282654,
                -1.1041853427886963
            ],
            "min" : [
                -0.7868102788925171,
                -0.3589414358139038,
                -1.1041853427886963
            ],
            "type" : "VEC3"
        },
        {
            "bufferView" : 5,
            "componentType" : 5126,
            "count" : 778,
            "type" : "VEC3"
        },
        {
            "bufferView" : 6,
            "componentType" : 5126,
            "count" : 778,
            "type" : "VEC2"
        },
        {
            "bufferView" : 7,
            "componentType" : 5123,
            "count" : 1377,
            "type" : "SCALAR"
        },
        {
            "bufferView" : 8,
            "componentType" : 5126,
            "count" : 351,
            "max" : [
                1.100000023841858,
                1.100000023841858,
                2.430222272872925
            ],
            "min" : [
                -1.100000023841858,
                -1.100000023841858,
                0.20799994468688965
            ],
            "type" : "VEC3"
        },
        {
            "bufferView" : 9,
            "componentType" : 5126,
            "count" : 351,
            "type" : "VEC3"
        },
        {
            "bufferView" : 10,
            "componentType" : 5126,
            "count" : 351,
            "type" : "VEC2"
        },
        {
            "bufferView" : 11,
            "componentType" : 5123,
            "count" : 372,
            "type" : "SCALAR"
        },
        {
            "bufferView" : 12,
            "componentType" : 5126,
            "count" : 31,
            "max" : [
                1.25
            ],
            "min" : [
                0
            ],
            "type" : "SCALAR"
        },
        {
            "bufferView" : 13,
            "componentType" : 5126,
            "count" : 31,
            "type" : "VEC3"
        }
    ],
    "bufferViews" : [
        {
            "buffer" : 0,
            "byteLength" : 4152,
            "byteOffset" : 0
        },
        {
            "buffer" : 0,
            "byteLength" : 4152,
            "byteOffset" : 4152
        },
        {
            "buffer" : 0,
            "byteLength" : 2768,
            "byteOffset" : 8304
        },
        {
            "buffer" : 0,
            "byteLength" : 744,
            "byteOffset" : 11072
        },
        {
            "buffer" : 0,
            "byteLength" : 9336,
            "byteOffset" : 11816
        },
        {
            "buffer" : 0,
            "byteLength" : 9336,
            "byteOffset" : 21152
        },
        {
            "buffer" : 0,
            "byteLength" : 6224,
            "byteOffset" : 30488
        },
        {
            "buffer" : 0,
            "byteLength" : 2754,
            "byteOffset" : 36712
        },
        {
            "buffer" : 0,
            "byteLength" : 4212,
            "byteOffset" : 39468
        },
        {
            "buffer" : 0,
            "byteLength" : 4212,
            "byteOffset" : 43680
        },
        {
            "buffer" : 0,
            "byteLength" : 2808,
            "byteOffset" : 47892
        },
        {
            "buffer" : 0,
            "byteLength" : 744,
            "byteOffset" : 50700
        },
        {
            "buffer" : 0,
            "byteLength" : 124,
            "byteOffset" : 51444
        },
        {
            "buffer" : 0,
            "byteLength" : 372,
            "byteOffset" : 51568
        }
    ],
    "buffers" : [
        {
            "byteLength" : 51940,
            "uri" : "data:application/octet-stream;base64,"
        }
    ]
}
