{
    "asset" : {
        "generator" : "Khronos glTF Blender I/O v1.8.19",
        "version" : "2.0"
    },
    "scene" : 0,
    "scenes" : [
        {
            "name" : "Scene",
            "nodes" : [
                1,
                2
            ]
        }
    ],
    "nodes" : [
        {
            "mesh" : 0,
            "name" : "Text",
            "scale" : [
                0.828450620174408,
                5.413480758666992,
                0.828450620174408
            ],
            "translation" : [
                -0.8199483156204224,
                1.1041853427886963,
                0.21351799368858337
            ]
        },
        {
            "children" : [
                0
            ],
            "mesh" : 1,
            "name" : "Button",
            "scale" : [
                1,
                0.18000000715255737,
                1
            ],
            "translation" : [
                0,
                -0.06256002187728882,
                0
            ]
        },
        {
            "mesh" : 2,
            "name" : "Base",
            "scale" : [
                1.100000023841858,
                0.20000000298023224,
                1.100000023841858
            ],
            "translation" : [
                0,
                -0.30000001192092896,
                0
            ]
        }
    ],
    "animations" : [
        {
            "channels" : [
                {
                    "sampler" : 0,
                    "target" : {
                        "node" : 1,
                        "path" : "scale"
                    }
                }
            ],
            "name" : "push",
            "samplers" : [
                {
                    "input" : 11,
                    "interpolation" : "LINEAR",
                    "output" : 12
                }
            ]
        }
    ],
    "materials" : [
        {
            "doubleSided" : true,
            "name" : "white",
            "pbrMetallicRoughness" : {
                "metallicFactor" : 0,
                "roughnessFactor" : 0.5
            }
        },
        {
            "doubleSided" : true,
            "name" : "red",
            "pbrMetallicRoughness" : {
                "baseColorFactor" : [
                    0.8000000715255737,
                    0.0039004588034003973,
                    0,
                    1
                ],
                "metallicFactor" : 0,
                "roughnessFactor" : 0.5
            }
        },
        {
            "doubleSided" : true,
            "name" : "black",
            "pbrMetallicRoughness" : {
                "baseColorFactor" : [
                    0,
                    0,
                    0,
                    1
                ],
                "metallicFactor" : 0,
                "roughnessFactor" : 0.5
            }
        }
    ],
    "meshes" : [
        {
            "name" : "text",
            "primitives" : [
                {
                    "attributes" : {
                        "POSITION" : 0,
                        "NORMAL" : 1,
                        "TEXCOORD_0" : 2
                    },
                    "indices" : 3,
                    "material" : 0
                }
            ]
        },
        {
            "name" : "button",
            "primitives" : [
                {
                    "attributes" : {
                        "POSITION" : 4,
                        "NORMAL" : 5,
                        "TEXCOORD_0" : 6
                    },
                    "indices" : 7,
                    "material" : 1
                }
            ]
        },
        {
            "name" : "base",
            "primitives" : [
                {
                    "attributes" : {
                        "POSITION" : 8,
                        "NORMAL" : 9,
                        "TEXCOORD_0" : 10
                    },
                    "indices" : 7,
                    "material" : 2
                }
            ]
        }
    ],
    "accessors" : [
        {
            "bufferView" : 0,
            "componentType" : 5126,
            "count" : 620,
            "max" : [
                1.946000099182129,
                0,
                0.009000000543892384
            ],
            "min" : [
                0.04000000283122063,
                0,
                -0.6910000443458557
            ],
            "type" : "VEC3"
        },
        {
            "bufferView" : 1,
            "componentType" : 5126,
            "count" : 620,
            "type" : "VEC3"
        },
        {
            "bufferView" : 2,
            "componentType" : 5126,
            "count" : 620,
            "type" : "VEC2"
        },
        {
            "bufferView" : 3,
            "componentType" : 5123,
            "count" : 1377,
            "type" : "SCALAR"
        },
        {
            "bufferView" : 4,
            "componentType" : 5126,
            "count" : 192,
            "max" : [
                1,
                1,
                1
            ],
            "min" : [
                -1,
                -1,
                -1
            ],
            "type" : "VEC3"
        },
        {
            "bufferView" : 5,
            "componentType" : 5126,
            "count" : 192,
            "type" : "VEC3"
        },
        {
            "bufferView" : 6,
            "componentType" : 5126,
            "count" : 192,
            "type" : "VEC2"
        },
        {
            "bufferView" : 7,
            "componentType" : 5123,
            "count" : 372,
            "type" : "SCALAR"
        },
        {
            "bufferView" : 8,
            "componentType" : 5126,
            "count" : 192,
            "max" : [
                1,
                1,
                1
            ],
            "min" : [
                -1,
                -1,
                -1
            ],
            "type" : "VEC3"
        },
        {
            "bufferView" : 9,
            "componentType" : 5126,
            "count" : 192,
            "type" : "VEC3"
        },
        {
            "bufferView" : 10,
            "componentType" : 5126,
            "count" : 192,
            "type" : "VEC2"
        },
        {
            "bufferView" : 11,
            "componentType" : 5126,
            "count" : 31,
            "max" : [
                1.25
            ],
            "min" : [
                0
            ],
            "type" : "SCALAR"
        },
        {
            "bufferView" : 12,
            "componentType" : 5126,
            "count" : 31,
            "type" : "VEC3"
        }
    ],
    "bufferViews" : [
        {
            "buffer" : 0,
            "byteLength" : 7440,
            "byteOffset" : 0
        },
        {
            "buffer" : 0,
            "byteLength" : 7440,
            "byteOffset" : 7440
        },
        {
            "buffer" : 0,
            "byteLength" : 4960,
            "byteOffset" : 14880
        },
        {
            "buffer" : 0,
            "byteLength" : 2754,
            "byteOffset" : 19840
        },
        {
            "buffer" : 0,
            "byteLength" : 2304,
            "byteOffset" : 22596
        },
        {
            "buffer" : 0,
            "byteLength" : 2304,
            "byteOffset" : 24900
        },
        {
            "buffer" : 0,
            "byteLength" : 1536,
            "byteOffset" : 27204
        },
        {
            "buffer" : 0,
            "byteLength" : 744,
            "byteOffset" : 28740
        },
        {
            "buffer" : 0,
            "byteLength" : 2304,
            "byteOffset" : 29484
        },
        {
            "buffer" : 0,
            "byteLength" : 2304,
            "byteOffset" : 31788
        },
        {
            "buffer" : 0,
            "byteLength" : 1536,
            "byteOffset" : 34092
        },
        {
            "buffer" : 0,
            "byteLength" : 124,
            "byteOffset" : 35628
        },
        {
            "buffer" : 0,
            "byteLength" : 372,
            "byteOffset" : 35752
        }
    ],
    "buffers" : [
        {
            "byteLength" : 36124,
            "uri" : "button.bin"
        }
    ]
}
