{
    "asset" : {
        "generator" : "Khronos glTF Blender I/O v1.8.19",
        "version" : "2.0"
    },
    "scene" : 0,
    "scenes" : [
        {
            "name" : "Scene",
            "nodes" : [
                13
            ]
        }
    ],
    "nodes" : [
        {
            "mesh" : 0,
            "name" : "jscmiscon1"
        },
        {
            "mesh" : 1,
            "name" : "jscmiscon1_1"
        },
        {
            "mesh" : 2,
            "name" : "jscmiscon1_22"
        },
        {
            "mesh" : 3,
            "name" : "jscmiscon1_27"
        },
        {
            "mesh" : 4,
            "name" : "jscmiscon1_28"
        },
        {
            "mesh" : 5,
            "name" : "jscmiscon1_4"
        },
        {
            "mesh" : 6,
            "name" : "jscmiscon1_40"
        },
        {
            "mesh" : 7,
            "name" : "jscmiscon1_41"
        },
        {
            "mesh" : 8,
            "name" : "jscmiscon1_42"
        },
        {
            "mesh" : 9,
            "name" : "jscmiscon1_43"
        },
        {
            "mesh" : 10,
            "name" : "jscmiscon1_5"
        },
        {
            "mesh" : 11,
            "name" : "jscmiscon1_6"
        },
        {
            "children" : [
                0,
                1,
                2,
                3,
                4,
                5,
                6,
                7,
                8,
                9,
                10,
                11
            ],
            "name" : "Node"
        },
        {
            "children" : [
                12
            ],
            "name" : "AuxScene",
            "rotation" : [
                0.7071068286895752,
                0,
                0,
                0.7071067094802856
            ]
        }
    ],
    "materials" : [
        {
            "doubleSided" : true,
            "name" : "purple_light",
            "pbrMetallicRoughness" : {
                "baseColorFactor" : [
                    0.8187933564186096,
                    0.8084654211997986,
                    1,
                    1
                ],
                "metallicFactor" : 0
            }
        },
        {
            "doubleSided" : true,
            "name" : "purple_dark",
            "pbrMetallicRoughness" : {
                "baseColorFactor" : [
                    0.27521246671676636,
                    0.272007554769516,
                    0.35883674025535583,
                    1
                ],
                "metallicFactor" : 0
            }
        },
        {
            "doubleSided" : true,
            "name" : "purple",
            "pbrMetallicRoughness" : {
                "baseColorFactor" : [
                    0.49693235754966736,
                    0.4910203516483307,
                    0.6514056324958801,
                    1
                ],
                "metallicFactor" : 0
            }
        },
        {
            "name" : "floor",
            "pbrMetallicRoughness" : {
                "baseColorFactor" : [
                    0.06480319797992706,
                    0.03189598396420479,
                    0.09758733212947845,
                    1
                ],
                "metallicFactor" : 0
            }
        },
        {
            "doubleSided" : true,
            "name" : "dark",
            "pbrMetallicRoughness" : {
                "baseColorFactor" : [
                    0.036889415234327316,
                    0.036889415234327316,
                    0.036889445036649704,
                    1
                ],
                "metallicFactor" : 0
            }
        }
    ],
    "meshes" : [
        {
            "name" : "Mesh_0",
            "primitives" : [
                {
                    "attributes" : {
                        "POSITION" : 0,
                        "NORMAL" : 1
                    },
                    "indices" : 2,
                    "material" : 0
                }
            ]
        },
        {
            "name" : "Mesh_1",
            "primitives" : [
                {
                    "attributes" : {
                        "POSITION" : 3,
                        "NORMAL" : 4
                    },
                    "indices" : 5,
                    "material" : 1
                }
            ]
        },
        {
            "name" : "Mesh_22",
            "primitives" : [
                {
                    "attributes" : {
                        "POSITION" : 6,
                        "NORMAL" : 7
                    },
                    "indices" : 8,
                    "material" : 2
                }
            ]
        },
        {
            "name" : "Mesh_27",
            "primitives" : [
                {
                    "attributes" : {
                        "POSITION" : 9,
                        "NORMAL" : 10
                    },
                    "indices" : 11,
                    "material" : 3
                }
            ]
        },
        {
            "name" : "Mesh_28",
            "primitives" : [
                {
                    "attributes" : {
                        "POSITION" : 12,
                        "NORMAL" : 13
                    },
                    "indices" : 14,
                    "material" : 0
                }
            ]
        },
        {
            "name" : "Mesh_4",
            "primitives" : [
                {
                    "attributes" : {
                        "POSITION" : 15,
                        "NORMAL" : 16
                    },
                    "indices" : 17,
                    "material" : 2
                }
            ]
        },
        {
            "name" : "Mesh_40",
            "primitives" : [
                {
                    "attributes" : {
                        "POSITION" : 18,
                        "NORMAL" : 19
                    },
                    "indices" : 20,
                    "material" : 4
                }
            ]
        },
        {
            "name" : "Mesh_41",
            "primitives" : [
                {
                    "attributes" : {
                        "POSITION" : 21,
                        "NORMAL" : 22
                    },
                    "indices" : 23,
                    "material" : 4
                }
            ]
        },
        {
            "name" : "Mesh_42",
            "primitives" : [
                {
                    "attributes" : {
                        "POSITION" : 24,
                        "NORMAL" : 25
                    },
                    "indices" : 26,
                    "material" : 2
                }
            ]
        },
        {
            "name" : "Mesh_43",
            "primitives" : [
                {
                    "attributes" : {
                        "POSITION" : 27,
                        "NORMAL" : 28
                    },
                    "indices" : 29,
                    "material" : 2
                }
            ]
        },
        {
            "name" : "Mesh_5",
            "primitives" : [
                {
                    "attributes" : {
                        "POSITION" : 30,
                        "NORMAL" : 31
                    },
                    "indices" : 32,
                    "material" : 2
                }
            ]
        },
        {
            "name" : "Mesh_6",
            "primitives" : [
                {
                    "attributes" : {
                        "POSITION" : 33,
                        "NORMAL" : 34
                    },
                    "indices" : 35,
                    "material" : 1
                }
            ]
        }
    ],
    "accessors" : [
        {
            "bufferView" : 0,
            "componentType" : 5126,
            "count" : 934,
            "max" : [
                4.299190044403076,
                -1.0793999433517456,
                -0.6886389851570129
            ],
            "min" : [
                -2.4356400966644287,
                -4.66225004196167,
                -0.7157430052757263
            ],
            "type" : "VEC3"
        },
        {
            "bufferView" : 1,
            "componentType" : 5126,
            "count" : 934,
            "type" : "VEC3"
        },
        {
            "bufferView" : 2,
            "componentType" : 5123,
            "count" : 4320,
            "type" : "SCALAR"
        },
        {
            "bufferView" : 3,
            "componentType" : 5126,
            "count" : 46,
            "max" : [
                3.9396700859069824,
                -8.593839645385742,
                -1.243980050086975
            ],
            "min" : [
                -7.933589935302734,
                -9.644379615783691,
                -4.680190086364746
            ],
            "type" : "VEC3"
        },
        {
            "bufferView" : 4,
            "componentType" : 5126,
            "count" : 46,
            "type" : "VEC3"
        },
        {
            "bufferView" : 5,
            "componentType" : 5123,
            "count" : 186,
            "type" : "SCALAR"
        },
        {
            "bufferView" : 6,
            "componentType" : 5126,
            "count" : 48,
            "max" : [
                3.3297901153564453,
                -1.7365299463272095,
                -1.2265900373458862
            ],
            "min" : [
                -1.2671600580215454,
                -5.172979831695557,
                -1.3904900550842285
            ],
            "type" : "VEC3"
        },
        {
            "bufferView" : 7,
            "componentType" : 5126,
            "count" : 48,
            "type" : "VEC3"
        },
        {
            "bufferView" : 8,
            "componentType" : 5123,
            "count" : 264,
            "type" : "SCALAR"
        },
        {
            "bufferView" : 9,
            "componentType" : 5126,
            "count" : 11,
            "max" : [
                4.826519966125488,
                10.348799705505371,
                -0.005609000101685524
            ],
            "min" : [
                -9.679289817810059,
                -8.669280052185059,
                -0.005609999876469374
            ],
            "type" : "VEC3"
        },
        {
            "bufferView" : 10,
            "componentType" : 5126,
            "count" : 11,
            "type" : "VEC3"
        },
        {
            "bufferView" : 11,
            "componentType" : 5123,
            "count" : 27,
            "type" : "SCALAR"
        },
        {
            "bufferView" : 12,
            "componentType" : 5126,
            "count" : 32,
            "max" : [
                3.4138998985290527,
                -1.3644399642944336,
                -0.7019050121307373
            ],
            "min" : [
                -1.7060699462890625,
                -4.750820159912109,
                -0.7407280206680298
            ],
            "type" : "VEC3"
        },
        {
            "bufferView" : 13,
            "componentType" : 5126,
            "count" : 32,
            "type" : "VEC3"
        },
        {
            "bufferView" : 14,
            "componentType" : 5123,
            "count" : 48,
            "type" : "SCALAR"
        },
        {
            "bufferView" : 15,
            "componentType" : 5126,
            "count" : 347,
            "max" : [
                4.794159889221191,
                -1.1916500329971313,
                0
            ],
            "min" : [
                -2.805720090866089,
                -6.009379863739014,
                -1.2273900508880615
            ],
            "type" : "VEC3"
        },
        {
            "bufferView" : 16,
            "componentType" : 5126,
            "count" : 347,
            "type" : "VEC3"
        },
        {
            "bufferView" : 17,
            "componentType" : 5123,
            "count" : 1128,
            "type" : "SCALAR"
        },
        {
            "bufferView" : 18,
            "componentType" : 5126,
            "count" : 4,
            "max" : [
                1.58843994140625,
                -8.661510467529297,
                -1.1454800367355347
            ],
            "min" : [
                -7.877089977264404,
                -8.661510467529297,
                -4.670849800109863
            ],
            "type" : "VEC3"
        },
        {
            "bufferView" : 19,
            "componentType" : 5126,
            "count" : 4,
            "type" : "VEC3"
        },
        {
            "bufferView" : 20,
            "componentType" : 5123,
            "count" : 6,
            "type" : "SCALAR"
        },
        {
            "bufferView" : 21,
            "componentType" : 5126,
            "count" : 80,
            "max" : [
                4.370649814605713,
                -1.4012800455093384,
                -0.727196991443634
            ],
            "min" : [
                -2.3885300159454346,
                -4.943339824676514,
                -1.0568000078201294
            ],
            "type" : "VEC3"
        },
        {
            "bufferView" : 22,
            "componentType" : 5126,
            "count" : 80,
            "type" : "VEC3"
        },
        {
            "bufferView" : 23,
            "componentType" : 5123,
            "count" : 120,
            "type" : "SCALAR"
        },
        {
            "bufferView" : 24,
            "componentType" : 5126,
            "count" : 24,
            "max" : [
                4.826519966125488,
                10.348799705505371,
                -0.005609000101685524
            ],
            "min" : [
                4.337629795074463,
                -8.669280052185059,
                -3.6581199169158936
            ],
            "type" : "VEC3"
        },
        {
            "bufferView" : 25,
            "componentType" : 5126,
            "count" : 24,
            "type" : "VEC3"
        },
        {
            "bufferView" : 26,
            "componentType" : 5123,
            "count" : 66,
            "type" : "SCALAR"
        },
        {
            "bufferView" : 27,
            "componentType" : 5126,
            "count" : 26,
            "max" : [
                4.82282018661499,
                -8.372730255126953,
                -0.005609000101685524
            ],
            "min" : [
                -9.679289817810059,
                -8.669300079345703,
                -4.933559894561768
            ],
            "type" : "VEC3"
        },
        {
            "bufferView" : 28,
            "componentType" : 5126,
            "count" : 26,
            "type" : "VEC3"
        },
        {
            "bufferView" : 29,
            "componentType" : 5123,
            "count" : 78,
            "type" : "SCALAR"
        },
        {
            "bufferView" : 30,
            "componentType" : 5126,
            "count" : 419,
            "max" : [
                4.794159889221191,
                -0.8435419797897339,
                -0.613673985004425
            ],
            "min" : [
                -2.805720090866089,
                -4.750820159912109,
                -0.7407280206680298
            ],
            "type" : "VEC3"
        },
        {
            "bufferView" : 31,
            "componentType" : 5126,
            "count" : 419,
            "type" : "VEC3"
        },
        {
            "bufferView" : 32,
            "componentType" : 5123,
            "count" : 888,
            "type" : "SCALAR"
        },
        {
            "bufferView" : 33,
            "componentType" : 5126,
            "count" : 284,
            "max" : [
                4.756750106811523,
                -1.2844699621200562,
                -0.6987670063972473
            ],
            "min" : [
                -2.7703399658203125,
                -5.012380123138428,
                -1.118589997291565
            ],
            "type" : "VEC3"
        },
        {
            "bufferView" : 34,
            "componentType" : 5126,
            "count" : 284,
            "type" : "VEC3"
        },
        {
            "bufferView" : 35,
            "componentType" : 5123,
            "count" : 1440,
            "type" : "SCALAR"
        }
    ],
    "bufferViews" : [
        {
            "buffer" : 0,
            "byteLength" : 11208,
            "byteOffset" : 0
        },
        {
            "buffer" : 0,
            "byteLength" : 11208,
            "byteOffset" : 11208
        },
        {
            "buffer" : 0,
            "byteLength" : 8640,
            "byteOffset" : 22416
        },
        {
            "buffer" : 0,
            "byteLength" : 552,
            "byteOffset" : 31056
        },
        {
            "buffer" : 0,
            "byteLength" : 552,
            "byteOffset" : 31608
        },
        {
            "buffer" : 0,
            "byteLength" : 372,
            "byteOffset" : 32160
        },
        {
            "buffer" : 0,
            "byteLength" : 576,
            "byteOffset" : 32532
        },
        {
            "buffer" : 0,
            "byteLength" : 576,
            "byteOffset" : 33108
        },
        {
            "buffer" : 0,
            "byteLength" : 528,
            "byteOffset" : 33684
        },
        {
            "buffer" : 0,
            "byteLength" : 132,
            "byteOffset" : 34212
        },
        {
            "buffer" : 0,
            "byteLength" : 132,
            "byteOffset" : 34344
        },
        {
            "buffer" : 0,
            "byteLength" : 54,
            "byteOffset" : 34476
        },
        {
            "buffer" : 0,
            "byteLength" : 384,
            "byteOffset" : 34532
        },
        {
            "buffer" : 0,
            "byteLength" : 384,
            "byteOffset" : 34916
        },
        {
            "buffer" : 0,
            "byteLength" : 96,
            "byteOffset" : 35300
        },
        {
            "buffer" : 0,
            "byteLength" : 4164,
            "byteOffset" : 35396
        },
        {
            "buffer" : 0,
            "byteLength" : 4164,
            "byteOffset" : 39560
        },
        {
            "buffer" : 0,
            "byteLength" : 2256,
            "byteOffset" : 43724
        },
        {
            "buffer" : 0,
            "byteLength" : 48,
            "byteOffset" : 45980
        },
        {
            "buffer" : 0,
            "byteLength" : 48,
            "byteOffset" : 46028
        },
        {
            "buffer" : 0,
            "byteLength" : 12,
            "byteOffset" : 46076
        },
        {
            "buffer" : 0,
            "byteLength" : 960,
            "byteOffset" : 46088
        },
        {
            "buffer" : 0,
            "byteLength" : 960,
            "byteOffset" : 47048
        },
        {
            "buffer" : 0,
            "byteLength" : 240,
            "byteOffset" : 48008
        },
        {
            "buffer" : 0,
            "byteLength" : 288,
            "byteOffset" : 48248
        },
        {
            "buffer" : 0,
            "byteLength" : 288,
            "byteOffset" : 48536
        },
        {
            "buffer" : 0,
            "byteLength" : 132,
            "byteOffset" : 48824
        },
        {
            "buffer" : 0,
            "byteLength" : 312,
            "byteOffset" : 48956
        },
        {
            "buffer" : 0,
            "byteLength" : 312,
            "byteOffset" : 49268
        },
        {
            "buffer" : 0,
            "byteLength" : 156,
            "byteOffset" : 49580
        },
        {
            "buffer" : 0,
            "byteLength" : 5028,
            "byteOffset" : 49736
        },
        {
            "buffer" : 0,
            "byteLength" : 5028,
            "byteOffset" : 54764
        },
        {
            "buffer" : 0,
            "byteLength" : 1776,
            "byteOffset" : 59792
        },
        {
            "buffer" : 0,
            "byteLength" : 3408,
            "byteOffset" : 61568
        },
        {
            "buffer" : 0,
            "byteLength" : 3408,
            "byteOffset" : 64976
        },
        {
            "buffer" : 0,
            "byteLength" : 2880,
            "byteOffset" : 68384
        }
    ],
    "buffers" : [
        {
            "byteLength" : 71264,
            "uri" : "controlroom.bin"
        }
    ]
}
