{
    "asset" : {
        "generator" : "Khronos glTF Blender I/O v0.9.36",
        "version" : "2.0"
    },
    "scene" : 0,
    "scenes" : [
        {
            "name" : "Scene",
            "nodes" : [
                0
            ]
        }
    ],
    "nodes" : [
        {
            "mesh" : 0,
            "name" : "Gold Plating"
        }
    ],
    "materials" : [
        {
            "doubleSided" : true,
            "name" : "JWST-TopReflector",
            "pbrMetallicRoughness" : {
                "baseColorFactor" : [
                    0.7843137383460999,
                    0.5477988719940186,
                    0.1576562076807022,
                    1
                ],
                "metallicFactor" : 0,
                "roughnessFactor" : 0.5
            }
        },
        {
            "doubleSided" : true,
            "name" : "JWST-TopReflector-fl",
            "pbrMetallicRoughness" : {
                "baseColorFactor" : [
                    0.7843137383460999,
                    0.5490196347236633,
                    0.1568627506494522,
                    1
                ],
                "metallicFactor" : 0,
                "roughnessFactor" : 0.5
            }
        }
    ],
    "meshes" : [
        {
            "name" : "JWST-2016-with-instruments.010",
            "primitives" : [
                {
                    "attributes" : {
                        "POSITION" : 0,
                        "NORMAL" : 1,
                        "TEXCOORD_0" : 2
                    },
                    "indices" : 3,
                    "material" : 0
                },
                {
                    "attributes" : {
                        "POSITION" : 4,
                        "NORMAL" : 5,
                        "TEXCOORD_0" : 6
                    },
                    "indices" : 7,
                    "material" : 1
                }
            ]
        }
    ],
    "accessors" : [
        {
            "bufferView" : 0,
            "componentType" : 5126,
            "count" : 2979,
            "max" : [
                2.872096300125122,
                6.490403652191162,
                1.754056453704834
            ],
            "min" : [
                -2.8979263305664062,
                0.25628337264060974,
                1.3406319618225098
            ],
            "type" : "VEC3"
        },
        {
            "bufferView" : 1,
            "componentType" : 5126,
            "count" : 2979,
            "type" : "VEC3"
        },
        {
            "bufferView" : 2,
            "componentType" : 5126,
            "count" : 2979,
            "type" : "VEC2"
        },
        {
            "bufferView" : 3,
            "componentType" : 5123,
            "count" : 2979,
            "type" : "SCALAR"
        },
        {
            "bufferView" : 4,
            "componentType" : 5126,
            "count" : 2271,
            "max" : [
                2.872096300125122,
                6.490403652191162,
                1.754056453704834
            ],
            "min" : [
                -2.8979263305664062,
                0.25628337264060974,
                1.3406319618225098
            ],
            "type" : "VEC3"
        },
        {
            "bufferView" : 5,
            "componentType" : 5126,
            "count" : 2271,
            "type" : "VEC3"
        },
        {
            "bufferView" : 6,
            "componentType" : 5126,
            "count" : 2271,
            "type" : "VEC2"
        },
        {
            "bufferView" : 7,
            "componentType" : 5123,
            "count" : 2271,
            "type" : "SCALAR"
        }
    ],
    "bufferViews" : [
        {
            "buffer" : 0,
            "byteLength" : 35748,
            "byteOffset" : 0
        },
        {
            "buffer" : 0,
            "byteLength" : 35748,
            "byteOffset" : 35748
        },
        {
            "buffer" : 0,
            "byteLength" : 23832,
            "byteOffset" : 71496
        },
        {
            "buffer" : 0,
            "byteLength" : 5958,
            "byteOffset" : 95328
        },
        {
            "buffer" : 0,
            "byteLength" : 27252,
            "byteOffset" : 101288
        },
        {
            "buffer" : 0,
            "byteLength" : 27252,
            "byteOffset" : 128540
        },
        {
            "buffer" : 0,
            "byteLength" : 18168,
            "byteOffset" : 155792
        },
        {
            "buffer" : 0,
            "byteLength" : 4542,
            "byteOffset" : 173960
        }
    ],
    "buffers" : [
        {
            "byteLength" : 178504,
            "uri" : "data:application/octet-stream;base64,"
        }
    ]
}
