{
    "asset" : {
        "generator" : "Khronos glTF Blender I/O v0.9.36",
        "version" : "2.0"
    },
    "scene" : 0,
    "scenes" : [
        {
            "name" : "Scene",
            "nodes" : [
                0
            ]
        }
    ],
    "nodes" : [
        {
            "mesh" : 0,
            "name" : "Secondary Mirror"
        }
    ],
    "materials" : [
        {
            "doubleSided" : true,
            "name" : "JWST-bracket2-fl",
            "pbrMetallicRoughness" : {
                "baseColorFactor" : [
                    0.461539626121521,
                    0.461539626121521,
                    0.461539626121521,
                    1
                ],
                "metallicFactor" : 0,
                "roughnessFactor" : 0.5
            }
        },
        {
            "doubleSided" : true,
            "name" : "JWST-silver-sm",
            "pbrMetallicRoughness" : {
                "baseColorFactor" : [
                    0.8267490863800049,
                    0.8280613422393799,
                    0.8051880598068237,
                    1
                ],
                "metallicFactor" : 0,
                "roughnessFactor" : 0.5
            }
        },
        {
            "doubleSided" : true,
            "name" : "JWST-bracket2-sm",
            "pbrMetallicRoughness" : {
                "baseColorFactor" : [
                    0.461539626121521,
                    0.461539626121521,
                    0.461539626121521,
                    1
                ],
                "metallicFactor" : 0,
                "roughnessFactor" : 0.5
            }
        },
        {
            "doubleSided" : true,
            "name" : "JWST-silver-fl",
            "pbrMetallicRoughness" : {
                "baseColorFactor" : [
                    0.8267490863800049,
                    0.8280613422393799,
                    0.8051880598068237,
                    1
                ],
                "metallicFactor" : 0,
                "roughnessFactor" : 0.5
            }
        },
        {
            "doubleSided" : true,
            "name" : "JWST-TopReflector",
            "pbrMetallicRoughness" : {
                "baseColorFactor" : [
                    0.7843137383460999,
                    0.5477988719940186,
                    0.1576562076807022,
                    1
                ],
                "metallicFactor" : 0,
                "roughnessFactor" : 0.5
            }
        },
        {
            "doubleSided" : true,
            "name" : "JWST-gold-fl",
            "pbrMetallicRoughness" : {
                "baseColorFactor" : [
                    0.7831082344055176,
                    0.5502555966377258,
                    0.15574882924556732,
                    1
                ],
                "metallicFactor" : 0,
                "roughnessFactor" : 0.5
            }
        },
        {
            "doubleSided" : true,
            "name" : "JWST-mirror-sm",
            "pbrMetallicRoughness" : {
                "baseColorFactor" : [
                    1,
                    1,
                    1,
                    0.550000011920929
                ],
                "metallicFactor" : 0,
                "roughnessFactor" : 0.5
            }
        }
    ],
    "meshes" : [
        {
            "name" : "JWST-2016-with-instruments.008",
            "primitives" : [
                {
                    "attributes" : {
                        "POSITION" : 0,
                        "NORMAL" : 1,
                        "TEXCOORD_0" : 2
                    },
                    "indices" : 3,
                    "material" : 0
                },
                {
                    "attributes" : {
                        "POSITION" : 4,
                        "NORMAL" : 5,
                        "TEXCOORD_0" : 6
                    },
                    "indices" : 7,
                    "material" : 1
                },
                {
                    "attributes" : {
                        "POSITION" : 8,
                        "NORMAL" : 9,
                        "TEXCOORD_0" : 10
                    },
                    "indices" : 11,
                    "material" : 2
                },
                {
                    "attributes" : {
                        "POSITION" : 12,
                        "NORMAL" : 13,
                        "TEXCOORD_0" : 14
                    },
                    "indices" : 15,
                    "material" : 3
                },
                {
                    "attributes" : {
                        "POSITION" : 16,
                        "NORMAL" : 17,
                        "TEXCOORD_0" : 18
                    },
                    "indices" : 19,
                    "material" : 4
                },
                {
                    "attributes" : {
                        "POSITION" : 20,
                        "NORMAL" : 21,
                        "TEXCOORD_0" : 22
                    },
                    "indices" : 23,
                    "material" : 5
                },
                {
                    "attributes" : {
                        "POSITION" : 24,
                        "NORMAL" : 25,
                        "TEXCOORD_0" : 26
                    },
                    "indices" : 27,
                    "material" : 6
                }
            ]
        }
    ],
    "accessors" : [
        {
            "bufferView" : 0,
            "componentType" : 5126,
            "count" : 90,
            "max" : [
                1.565747618675232,
                5.734865665435791,
                8.547499656677246
            ],
            "min" : [
                -1.565747618675232,
                0.7129327058792114,
                1.8809617757797241
            ],
            "type" : "VEC3"
        },
        {
            "bufferView" : 1,
            "componentType" : 5126,
            "count" : 90,
            "type" : "VEC3"
        },
        {
            "bufferView" : 2,
            "componentType" : 5126,
            "count" : 90,
            "type" : "VEC2"
        },
        {
            "bufferView" : 3,
            "componentType" : 5123,
            "count" : 126,
            "type" : "SCALAR"
        },
        {
            "bufferView" : 4,
            "componentType" : 5126,
            "count" : 144,
            "max" : [
                0.3589000105857849,
                3.7388997077941895,
                8.445000648498535
            ],
            "min" : [
                -0.3788999915122986,
                3.0011000633239746,
                8.300000190734863
            ],
            "type" : "VEC3"
        },
        {
            "bufferView" : 5,
            "componentType" : 5126,
            "count" : 144,
            "type" : "VEC3"
        },
        {
            "bufferView" : 6,
            "componentType" : 5126,
            "count" : 144,
            "type" : "VEC2"
        },
        {
            "bufferView" : 7,
            "componentType" : 5123,
            "count" : 216,
            "type" : "SCALAR"
        },
        {
            "bufferView" : 8,
            "componentType" : 5126,
            "count" : 27,
            "max" : [
                0.0860000029206276,
                7.087118625640869,
                8.35914421081543
            ],
            "min" : [
                -0.0860000029206276,
                3.7699031829833984,
                1.8107320070266724
            ],
            "type" : "VEC3"
        },
        {
            "bufferView" : 9,
            "componentType" : 5126,
            "count" : 27,
            "type" : "VEC3"
        },
        {
            "bufferView" : 10,
            "componentType" : 5126,
            "count" : 27,
            "type" : "VEC2"
        },
        {
            "bufferView" : 11,
            "componentType" : 5123,
            "count" : 39,
            "type" : "SCALAR"
        },
        {
            "bufferView" : 12,
            "componentType" : 5126,
            "count" : 204,
            "max" : [
                0.3589000105857849,
                3.7388997077941895,
                8.445000648498535
            ],
            "min" : [
                -0.3788999915122986,
                3.0011000633239746,
                8.300000190734863
            ],
            "type" : "VEC3"
        },
        {
            "bufferView" : 13,
            "componentType" : 5126,
            "count" : 204,
            "type" : "VEC3"
        },
        {
            "bufferView" : 14,
            "componentType" : 5126,
            "count" : 204,
            "type" : "VEC2"
        },
        {
            "bufferView" : 15,
            "componentType" : 5123,
            "count" : 204,
            "type" : "SCALAR"
        },
        {
            "bufferView" : 16,
            "componentType" : 5126,
            "count" : 471,
            "max" : [
                0.09979881346225739,
                5.748878002166748,
                5.041546821594238
            ],
            "min" : [
                -0.10094084590673447,
                5.39345121383667,
                4.624744415283203
            ],
            "type" : "VEC3"
        },
        {
            "bufferView" : 17,
            "componentType" : 5126,
            "count" : 471,
            "type" : "VEC3"
        },
        {
            "bufferView" : 18,
            "componentType" : 5126,
            "count" : 471,
            "type" : "VEC2"
        },
        {
            "bufferView" : 19,
            "componentType" : 5123,
            "count" : 1602,
            "type" : "SCALAR"
        },
        {
            "bufferView" : 20,
            "componentType" : 5126,
            "count" : 138,
            "max" : [
                0.33500000834465027,
                3.840599536895752,
                8.545000076293945
            ],
            "min" : [
                -0.3369999825954437,
                2.9649996757507324,
                8.444999694824219
            ],
            "type" : "VEC3"
        },
        {
            "bufferView" : 21,
            "componentType" : 5126,
            "count" : 138,
            "type" : "VEC3"
        },
        {
            "bufferView" : 22,
            "componentType" : 5126,
            "count" : 138,
            "type" : "VEC2"
        },
        {
            "bufferView" : 23,
            "componentType" : 5123,
            "count" : 180,
            "type" : "SCALAR"
        },
        {
            "bufferView" : 24,
            "componentType" : 5126,
            "count" : 1548,
            "max" : [
                0.3469201326370239,
                3.7269201278686523,
                8.309995651245117
            ],
            "min" : [
                -0.36692014336586,
                3.0130796432495117,
                8.22499942779541
            ],
            "type" : "VEC3"
        },
        {
            "bufferView" : 25,
            "componentType" : 5126,
            "count" : 1548,
            "type" : "VEC3"
        },
        {
            "bufferView" : 26,
            "componentType" : 5126,
            "count" : 1548,
            "type" : "VEC2"
        },
        {
            "bufferView" : 27,
            "componentType" : 5123,
            "count" : 2268,
            "type" : "SCALAR"
        }
    ],
    "bufferViews" : [
        {
            "buffer" : 0,
            "byteLength" : 1080,
            "byteOffset" : 0
        },
        {
            "buffer" : 0,
            "byteLength" : 1080,
            "byteOffset" : 1080
        },
        {
            "buffer" : 0,
            "byteLength" : 720,
            "byteOffset" : 2160
        },
        {
            "buffer" : 0,
            "byteLength" : 252,
            "byteOffset" : 2880
        },
        {
            "buffer" : 0,
            "byteLength" : 1728,
            "byteOffset" : 3132
        },
        {
            "buffer" : 0,
            "byteLength" : 1728,
            "byteOffset" : 4860
        },
        {
            "buffer" : 0,
            "byteLength" : 1152,
            "byteOffset" : 6588
        },
        {
            "buffer" : 0,
            "byteLength" : 432,
            "byteOffset" : 7740
        },
        {
            "buffer" : 0,
            "byteLength" : 324,
            "byteOffset" : 8172
        },
        {
            "buffer" : 0,
            "byteLength" : 324,
            "byteOffset" : 8496
        },
        {
            "buffer" : 0,
            "byteLength" : 216,
            "byteOffset" : 8820
        },
        {
            "buffer" : 0,
            "byteLength" : 78,
            "byteOffset" : 9036
        },
        {
            "buffer" : 0,
            "byteLength" : 2448,
            "byteOffset" : 9116
        },
        {
            "buffer" : 0,
            "byteLength" : 2448,
            "byteOffset" : 11564
        },
        {
            "buffer" : 0,
            "byteLength" : 1632,
            "byteOffset" : 14012
        },
        {
            "buffer" : 0,
            "byteLength" : 408,
            "byteOffset" : 15644
        },
        {
            "buffer" : 0,
            "byteLength" : 5652,
            "byteOffset" : 16052
        },
        {
            "buffer" : 0,
            "byteLength" : 5652,
            "byteOffset" : 21704
        },
        {
            "buffer" : 0,
            "byteLength" : 3768,
            "byteOffset" : 27356
        },
        {
            "buffer" : 0,
            "byteLength" : 3204,
            "byteOffset" : 31124
        },
        {
            "buffer" : 0,
            "byteLength" : 1656,
            "byteOffset" : 34328
        },
        {
            "buffer" : 0,
            "byteLength" : 1656,
            "byteOffset" : 35984
        },
        {
            "buffer" : 0,
            "byteLength" : 1104,
            "byteOffset" : 37640
        },
        {
            "buffer" : 0,
            "byteLength" : 360,
            "byteOffset" : 38744
        },
        {
            "buffer" : 0,
            "byteLength" : 18576,
            "byteOffset" : 39104
        },
        {
            "buffer" : 0,
            "byteLength" : 18576,
            "byteOffset" : 57680
        },
        {
            "buffer" : 0,
            "byteLength" : 12384,
            "byteOffset" : 76256
        },
        {
            "buffer" : 0,
            "byteLength" : 4536,
            "byteOffset" : 88640
        }
    ],
    "buffers" : [
        {
            "byteLength" : 93176,
            "uri" : "data:application/octet-stream;base64,"
        }
    ]
}
